<svg xmlns="http://www.w3.org/2000/svg" xmlns:xlink="http://www.w3.org/1999/xlink" viewBox="0 0 200 200"><defs><style>.cls-1{fill:#4ec5c1;}.cls-2{fill:#f9f9f9;}.cls-12,.cls-13,.cls-3,.cls-6,.cls-7{opacity:0.26;}.cls-3{fill:url(#名称未設定グラデーション_249);}.cls-4{fill:#f5f5f5;}.cls-5{fill:url(#名称未設定グラデーション_367);}.cls-6{fill:url(#名称未設定グラデーション_6);}.cls-7{fill:url(#名称未設定グラデーション_2);}.cls-8{fill:url(#名称未設定グラデーション_377);}.cls-9{fill:url(#名称未設定グラデーション_3);}.cls-10{fill:url(#名称未設定グラデーション_266);}.cls-11{fill:url(#名称未設定グラデーション_367-2);}.cls-12{fill:url(#名称未設定グラデーション_6-2);}.cls-13{fill:url(#名称未設定グラデーション_2-2);}.cls-14{fill:url(#名称未設定グラデーション_377-2);}.cls-15{fill:url(#名称未設定グラデーション_3-2);}.cls-16{fill:url(#名称未設定グラデーション_266-2);}.cls-17{fill:#5d5e59;}.cls-18{fill:#464644;}.cls-19{fill:#3b3937;}.cls-20{fill:#333130;}.cls-21{opacity:0.54;fill:url(#名称未設定グラデーション_92);}.cls-22{fill:#cdb1a8;}</style><linearGradient id="名称未設定グラデーション_249" x1="100" y1="166.89" x2="100" y2="18.72" gradientUnits="userSpaceOnUse"><stop offset="0" stop-color="gray" stop-opacity="0.6"/><stop offset="0.03" stop-color="#878787" stop-opacity="0.4"/><stop offset="0.23" stop-color="#b0b0b0" stop-opacity="0.52"/><stop offset="0.38" stop-color="#ccc" stop-opacity="0.6"/><stop offset="0.4" stop-color="#c3c3c3" stop-opacity="0.6"/><stop offset="0.44" stop-color="#afafaf" stop-opacity="0.6"/><stop offset="0.5" stop-color="#a4a4a4" stop-opacity="0.6"/><stop offset="0.66" stop-color="#a1a1a1" stop-opacity="0.6"/><stop offset="0.82" stop-color="#d4d4d4" stop-opacity="0.29"/><stop offset="0.93" stop-color="#f2f2f2" stop-opacity="0.1"/></linearGradient><linearGradient id="名称未設定グラデーション_367" x1="100.02" y1="129.88" x2="100.02" y2="70.12" gradientUnits="userSpaceOnUse"><stop offset="0" stop-color="#f5f5f5"/><stop offset="0.71" stop-color="#f7f7f7"/><stop offset="0.97" stop-color="#fefefe"/><stop offset="1" stop-color="#fff"/></linearGradient><linearGradient id="名称未設定グラデーション_6" x1="109.72" y1="129.88" x2="109.72" y2="70.12" gradientUnits="userSpaceOnUse"><stop offset="0" stop-color="#d3ceb9"/><stop offset="0.01" stop-color="#d3ceb9"/><stop offset="0.51" stop-color="#cecbc3"/><stop offset="0.71" stop-color="#cecbc3" stop-opacity="0.99"/><stop offset="0.78" stop-color="#d0cdc5" stop-opacity="0.96"/><stop offset="0.83" stop-color="#d2cfc8" stop-opacity="0.9"/><stop offset="0.87" stop-color="#d5d3cd" stop-opacity="0.81"/><stop offset="0.9" stop-color="#dad8d2" stop-opacity="0.71"/><stop offset="0.93" stop-color="#dfded9" stop-opacity="0.57"/><stop offset="0.96" stop-color="#e6e5e2" stop-opacity="0.41"/><stop offset="0.98" stop-color="#edeceb" stop-opacity="0.23"/><stop offset="1" stop-color="#f2f2f2" stop-opacity="0.1"/></linearGradient><linearGradient id="名称未設定グラデーション_2" x1="90.28" y1="129.87" x2="90.28" y2="70.13" gradientUnits="userSpaceOnUse"><stop offset="0" stop-color="#cec5bf"/><stop offset="0.51" stop-color="#e6e3dd"/><stop offset="0.7" stop-color="#e6e3dd" stop-opacity="0.99"/><stop offset="0.77" stop-color="#e7e4de" stop-opacity="0.96"/><stop offset="0.82" stop-color="#e7e4df" stop-opacity="0.91"/><stop offset="0.86" stop-color="#e8e6e1" stop-opacity="0.84"/><stop offset="0.89" stop-color="#e9e7e3" stop-opacity="0.74"/><stop offset="0.92" stop-color="#ebe9e6" stop-opacity="0.62"/><stop offset="0.95" stop-color="#edece9" stop-opacity="0.48"/><stop offset="0.97" stop-color="#efeeed" stop-opacity="0.31"/><stop offset="1" stop-color="#f2f1f1" stop-opacity="0.13"/><stop offset="1" stop-color="#f2f2f2" stop-opacity="0.1"/></linearGradient><linearGradient id="名称未設定グラデーション_377" x1="100.02" y1="100.27" x2="100.02" y2="73.25" gradientUnits="userSpaceOnUse"><stop offset="0" stop-color="#f5f5f5"/><stop offset="0.69" stop-color="#f5f5f5"/><stop offset="0.8" stop-color="#f5f5f5"/><stop offset="0.94" stop-color="#f7f7f7"/><stop offset="0.99" stop-color="#fefefe"/><stop offset="1" stop-color="#fff"/></linearGradient><linearGradient id="名称未設定グラデーション_3" x1="99.96" y1="110" x2="99.96" y2="100.27" gradientUnits="userSpaceOnUse"><stop offset="0" stop-color="#f5f5f5"/><stop offset="0.69" stop-color="#f3f3f3"/><stop offset="0.94" stop-color="#ececec"/><stop offset="1" stop-color="#e9e9e9"/></linearGradient><linearGradient id="名称未設定グラデーション_266" x1="99.94" y1="113.87" x2="99.94" y2="100.31" gradientUnits="userSpaceOnUse"><stop offset="0" stop-color="#f5f5f5"/><stop offset="0.38" stop-color="#f3f3f1"/><stop offset="0.72" stop-color="#eeede7"/><stop offset="1" stop-color="#e6e4d7"/></linearGradient><linearGradient id="名称未設定グラデーション_367-2" x1="100" y1="129.88" x2="100" y2="70.12" xlink:href="#名称未設定グラデーション_367"/><linearGradient id="名称未設定グラデーション_6-2" x1="109.7" y1="129.88" x2="109.7" y2="70.12" xlink:href="#名称未設定グラデーション_6"/><linearGradient id="名称未設定グラデーション_2-2" x1="90.3" y1="129.87" x2="90.3" y2="70.13" xlink:href="#名称未設定グラデーション_2"/><linearGradient id="名称未設定グラデーション_377-2" x1="100" y1="100.27" x2="100" y2="73.25" xlink:href="#名称未設定グラデーション_377"/><linearGradient id="名称未設定グラデーション_3-2" x1="100" y1="110" x2="100" y2="100.27" xlink:href="#名称未設定グラデーション_3"/><linearGradient id="名称未設定グラデーション_266-2" x1="100" y1="113.87" x2="100" y2="100.31" xlink:href="#名称未設定グラデーション_266"/><linearGradient id="名称未設定グラデーション_92" x1="102.85" y1="121.2" x2="100.37" y2="114.4" gradientUnits="userSpaceOnUse"><stop offset="0" stop-color="#9d9b94" stop-opacity="0.5"/><stop offset="0.29" stop-color="#676767" stop-opacity="0.5"/><stop offset="0.5" stop-color="#4a4c50" stop-opacity="0.5"/><stop offset="0.55" stop-color="#434447" stop-opacity="0.64"/><stop offset="0.7" stop-color="#373535" stop-opacity="0.92"/><stop offset="1" stop-color="#333130"/></linearGradient></defs><g id="レイヤー_6" data-name="レイヤー 6"><rect class="cls-1" width="200" height="200"/><rect class="cls-2" x="58.21" y="27.99" width="83.57" height="144.02" rx="8.64"/><path class="cls-3" d="M138.12,29.56a8.48,8.48,0,0,1,3,3.85,8,8,0,0,1,.63,3.52c0,2.65,0,125.36,0,126.57a8.38,8.38,0,0,1-1.2,4.22A8.55,8.55,0,0,1,137,171.1a8.16,8.16,0,0,1-3.45.9H67.74a9.45,9.45,0,0,1-4.72-.91,8.65,8.65,0,0,1-4.27-4.74,9.16,9.16,0,0,1-.54-3.7c2.59,4.56,3.38,6.46,8.72,7.41,29.44-36.95,44.53-64.26,72.36-133.3C140,35.1,138.6,30.54,138.12,29.56Z"/><rect class="cls-4" x="61.42" y="30.2" width="77.96" height="139.73" rx="6.63"/><path class="cls-5" d="M113.77,129.88H86.27c-3.41-.24-5.64-2.53-5.64-5.63V75.75a5.65,5.65,0,0,1,5.64-5.63h27.5a5.65,5.65,0,0,1,5.64,5.63v48.5A5.65,5.65,0,0,1,113.77,129.88Z"/><path class="cls-6" d="M119.42,75.38a5.66,5.66,0,0,0-5.37-5.26c2.32,4.44,1.26,8.43-1.86,8.37-2.59,0-3.92-.14-12.17-.14v51.49H111.7c6.11.43,7.54-2.57,7.72-6.06V79.48C119.41,77.53,119.42,77.29,119.42,75.38Z"/><path class="cls-7" d="M100,78.36c-3,0-7,0-12.22.06-3.28-.66-3.81-2.71-2.1-8.29-4.22,1.09-5.08,2.75-5.08,7.46,0,1.81,0,5.3,0,6.08,0,1.5,0,35.07,0,40.15-.14,4.89,4,6.16,6.32,6H100Z"/><path class="cls-8" d="M113.14,73.25H86.9a3.51,3.51,0,0,0-3.48,3.51V99.2a1.07,1.07,0,0,0,1,1.07h31.1a1.06,1.06,0,0,0,1.05-1.07V76.76A3.51,3.51,0,0,0,113.14,73.25Z"/><path class="cls-9" d="M82.7,101.61a2.37,2.37,0,0,1,2.15-1.32c7.79.09,29.14,0,30.29,0,3.84,0,3.08,7.38-.08,9.2-1.08.62-29.18.88-30.19-.22S81,105.11,82.7,101.61Z"/><path class="cls-4" d="M81.44,110.68c-.07,2.62,0,5.48,0,8.08,0,5.36.18,9.4,8.53,9.4,10.78,0,18.42.07,21.74,0a8.56,8.56,0,0,0,2.61-.44c3.37-1.13,4.05-2.37,4.11-12.66.19-11.33.29-14.3-3.18-14.7-3.12-.35-25.53.17-31,.07A2.26,2.26,0,0,0,82,102C81.13,104.49,81.5,108.75,81.44,110.68Z"/><path class="cls-10" d="M115.25,100.39c2.52.32,2.7,2.17,3,3.82s.08.79.18,7.7c.06,3.94-37.07,1-37.07-.42a76,76,0,0,1,.33-8.43c.63-3.18,2.43-2.68,3.93-2.67C85.67,100.39,113.73,100.2,115.25,100.39Z"/><path class="cls-11" d="M113.75,129.88H86.25c-3.41-.24-5.64-2.53-5.64-5.63V75.75a5.65,5.65,0,0,1,5.64-5.63h27.5a5.65,5.65,0,0,1,5.64,5.63v48.5A5.65,5.65,0,0,1,113.75,129.88Z"/><path class="cls-12" d="M119.4,75.38A5.67,5.67,0,0,0,114,70.12c2.32,4.44,1.25,8.43-1.87,8.37-2.58,0-3.92-.14-12.16-.14v51.49h11.68c6.1.43,7.54-2.57,7.72-6.06V79.48C119.39,77.53,119.4,77.29,119.4,75.38Z"/><path class="cls-13" d="M100,78.36c-3,0-7,0-12.22.06-3.28-.66-3.81-2.71-2.1-8.29-4.21,1.09-5.08,2.75-5.07,7.46,0,1.81,0,5.3,0,6.08,0,1.5,0,35.07,0,40.15-.14,4.89,3.95,6.16,6.32,6H100Z"/><path class="cls-14" d="M113.12,73.25H86.88a3.51,3.51,0,0,0-3.48,3.51V99.2a1.07,1.07,0,0,0,1,1.07h31.1a1.07,1.07,0,0,0,1-1.07V76.76A3.51,3.51,0,0,0,113.12,73.25Z"/><path class="cls-15" d="M82.75,101.61a2.35,2.35,0,0,1,2.14-1.32c7.8.09,29.14,0,30.3,0,3.83,0,3.08,7.38-.08,9.2-1.09.62-29.19.88-30.2-.22S81,105.11,82.75,101.61Z"/><path class="cls-4" d="M81.48,110.68c-.07,2.62,0,5.48,0,8.08,0,5.36.18,9.4,8.53,9.4,10.78,0,18.42.07,21.75,0a8.54,8.54,0,0,0,2.6-.44c3.37-1.13,4-2.37,4.12-12.66.18-11.33.29-14.3-3.18-14.7-3.13-.35-25.54.17-31,.07a2.27,2.27,0,0,0-2.18,1.5C81.17,104.49,81.54,108.75,81.48,110.68Z"/><path class="cls-16" d="M115.31,100.39c2.52.32,2.7,2.17,3,3.82s.09.79.19,7.7c.06,3.94-37.07,1-37.07-.42a75,75,0,0,1,.32-8.43c.64-3.18,2.44-2.68,3.94-2.67C85.73,100.39,113.79,100.2,115.31,100.39Z"/><path class="cls-17" d="M88.44,125.55h22.32c3.2,0,5-.14,5-4.47v-14.7c0-1-.14-4-2.08-4H87.49c-1,0-3,.17-3,2.61s-.21,15.49-.21,16.35S83.9,125.55,88.44,125.55Z"/><path class="cls-18" d="M88,126.57H111.2c3.33,0,5.17-.15,5.17-4.77V106.15c0-1.06-.15-4.25-2.17-4.25H87c-1,0-3.08.19-3.12,2.79s-.22,16.49-.22,17.4S83.24,126.57,88,126.57Z"/><path class="cls-19" d="M88.65,124.87h21.92c3.14,0,4.87-.13,4.87-4.38V106.1c0-1-.14-3.91-2-3.91H87.71c-1,0-2.9.17-2.94,2.56s-.2,15.17-.2,16S84.19,124.87,88.65,124.87Z"/><circle class="cls-20" cx="100" cy="113.87" r="7.86"/><path class="cls-21" d="M95.49,120.3a7.85,7.85,0,0,0,12.24-5,7.85,7.85,0,0,0-12.24,5Z"/><path class="cls-22" d="M99.7,108.86h.4a2.34,2.34,0,0,0,.89,1.36c1.62,1.52,2.13,2,2.13,3a3.39,3.39,0,0,1-1.47,2.29l-.23-.23a2.84,2.84,0,0,0,1.18-1.87c0-.81-.52-1.17-2.34-2.46v5.54a2.28,2.28,0,0,1-.67,1.76,2.31,2.31,0,0,1-1.57.66,1.06,1.06,0,0,1-1.14-1.07c0-.68.63-1.5,2-1.5a4.68,4.68,0,0,1,.84.09Z"/></g></svg>