<svg xmlns="http://www.w3.org/2000/svg" xmlns:xlink="http://www.w3.org/1999/xlink" viewBox="0 0 200 200"><defs><style>.cls-1{fill:#4ec5c1;}.cls-2{fill:#f9f9f9;}.cls-14,.cls-3{opacity:0.26;}.cls-3{fill:url(#名称未設定グラデーション_249);}.cls-4{fill:#f5f5f5;}.cls-5{fill:#efefef;stroke:#251a16;stroke-width:0.28px;}.cls-10,.cls-11,.cls-12,.cls-13,.cls-5{stroke-miterlimit:10;}.cls-6{fill:#251a16;}.cls-7{fill:url(#名称未設定グラデーション_303);}.cls-8{fill:url(#名称未設定グラデーション_259);}.cls-9{fill:#28210e;}.cls-10,.cls-11,.cls-12,.cls-13{fill:none;stroke:#3fa9f5;}.cls-10{stroke-width:0.28px;}.cls-11{stroke-width:0.29px;}.cls-12{stroke-width:0.27px;}.cls-13{stroke-width:0.28px;}.cls-14{fill:url(#名称未設定グラデーション_249-2);}.cls-15{fill:url(#名称未設定グラデーション_303-2);}.cls-16{fill:url(#名称未設定グラデーション_257);}.cls-17{fill:url(#名称未設定グラデーション_303-3);}.cls-18{fill:url(#名称未設定グラデーション_257-2);}</style><linearGradient id="名称未設定グラデーション_249" x1="100" y1="167.2" x2="100" y2="18.34" gradientUnits="userSpaceOnUse"><stop offset="0" stop-color="gray" stop-opacity="0.6"/><stop offset="0.03" stop-color="#878787" stop-opacity="0.4"/><stop offset="0.23" stop-color="#b0b0b0" stop-opacity="0.52"/><stop offset="0.38" stop-color="#ccc" stop-opacity="0.6"/><stop offset="0.4" stop-color="#c3c3c3" stop-opacity="0.6"/><stop offset="0.44" stop-color="#afafaf" stop-opacity="0.6"/><stop offset="0.5" stop-color="#a4a4a4" stop-opacity="0.6"/><stop offset="0.66" stop-color="#a1a1a1" stop-opacity="0.6"/><stop offset="0.82" stop-color="#d4d4d4" stop-opacity="0.29"/><stop offset="0.93" stop-color="#f2f2f2" stop-opacity="0.1"/></linearGradient><linearGradient id="名称未設定グラデーション_303" x1="86.31" y1="99.86" x2="113.85" y2="99.86" gradientUnits="userSpaceOnUse"><stop offset="0" stop-color="#f5f5f5"/><stop offset="1" stop-color="#e9e9e9"/></linearGradient><linearGradient id="名称未設定グラデーション_259" x1="89.3" y1="100.03" x2="113.85" y2="100.03" gradientUnits="userSpaceOnUse"><stop offset="0" stop-color="#f5f5f5"/><stop offset="0.17" stop-color="#eee"/><stop offset="0.4" stop-color="#e9e9e9"/><stop offset="1" stop-color="#e3e1e1"/></linearGradient><linearGradient id="名称未設定グラデーション_249-2" x1="100" y1="167.27" x2="100" y2="18.4" xlink:href="#名称未設定グラデーション_249"/><linearGradient id="名称未設定グラデーション_303-2" x1="2510.4" y1="2750.28" x2="2482.86" y2="2750.28" gradientTransform="translate(2596.72 2850.06) rotate(180)" xlink:href="#名称未設定グラデーション_303"/><linearGradient id="名称未設定グラデーション_257" x1="109.31" y1="99.85" x2="86.23" y2="99.85" gradientUnits="userSpaceOnUse"><stop offset="0" stop-color="#f5f5f5"/><stop offset="0.45" stop-color="#f2f1f1"/><stop offset="0.86" stop-color="#e8e7e7"/><stop offset="1" stop-color="#e3e1e1"/></linearGradient><linearGradient id="名称未設定グラデーション_303-3" x1="2510.41" y1="2750.22" x2="2482.86" y2="2750.22" gradientTransform="translate(2596.72 2850.06) rotate(180)" xlink:href="#名称未設定グラデーション_303"/><linearGradient id="名称未設定グラデーション_257-2" x1="109.31" y1="99.91" x2="86.23" y2="99.91" xlink:href="#名称未設定グラデーション_257"/></defs><g id="レイヤー_6" data-name="レイヤー 6"><rect class="cls-1" width="200" height="200"/><rect class="cls-2" x="58.02" y="27.65" width="83.96" height="144.69" rx="8.69"/><path class="cls-3" d="M138.3,29.23a8.55,8.55,0,0,1,3,3.87,8.23,8.23,0,0,1,.64,3.54c0,2.66,0,126,0,127.16a8.51,8.51,0,0,1-1.21,4.24,8.65,8.65,0,0,1-3.65,3.4,8.32,8.32,0,0,1-3.47.89c-7,0-64.68,0-66.06,0a9.39,9.39,0,0,1-4.74-.91,8.65,8.65,0,0,1-4.29-4.76,9.25,9.25,0,0,1-.54-3.72c2.6,4.58,3.39,6.49,8.76,7.45,29.57-37.13,44.73-64.57,72.69-133.93C140.15,34.8,138.78,30.21,138.3,29.23Z"/><rect class="cls-4" x="61.23" y="29.87" width="78.32" height="140.38" rx="6.67"/><rect class="cls-5" x="82.74" y="85.89" width="34.51" height="28.21" rx="0.69"/><rect class="cls-6" x="86.06" y="90.21" width="27.88" height="19.91" rx="0.43"/><path class="cls-7" d="M113.48,109.82,89,109.49l-2.28.33a.36.36,0,0,1-.37-.37V91a.36.36,0,0,1,.37-.37l2.62-.67,24.18.67a.36.36,0,0,1,.37.37v18.5A.36.36,0,0,1,113.48,109.82Z"/><path class="cls-8" d="M113.52,109.82l-24.22-.33V90.6a.34.34,0,0,1,.33-.36l23.89.66a.34.34,0,0,1,.33.36v18.21A.34.34,0,0,1,113.52,109.82Z"/><rect class="cls-9" x="109.96" y="97.51" width="1.33" height="4.79" rx="0.66" transform="translate(222.71 198.17) rotate(179.15)"/><rect class="cls-10" x="82.74" y="85.83" width="34.51" height="28.21"/><rect class="cls-11" x="86.06" y="90.15" width="27.88" height="19.91" rx="1.62"/><rect class="cls-12" x="86.72" y="90.81" width="26.55" height="18.92" rx="1.62"/><rect class="cls-13" x="106.3" y="97.11" width="1.33" height="6.64" rx="0.66"/><rect class="cls-2" x="58.03" y="27.58" width="83.96" height="144.69" rx="8.69"/><path class="cls-14" d="M138.3,29.3a8.55,8.55,0,0,1,3,3.87,8.09,8.09,0,0,1,.63,3.54c0,2.65,0,125.94,0,127.16a8.31,8.31,0,0,1-1.2,4.23,8.59,8.59,0,0,1-3.65,3.4,8.22,8.22,0,0,1-3.47.9c-7,0-64.68,0-66.06,0a9.5,9.5,0,0,1-4.74-.91,8.65,8.65,0,0,1-4.29-4.76A9.1,9.1,0,0,1,58,163c2.61,4.58,3.4,6.49,8.76,7.45,29.58-37.13,44.74-64.57,72.7-133.93C140.14,34.86,138.78,30.28,138.3,29.3Z"/><rect class="cls-4" x="61.17" y="30.08" width="78.32" height="140.38" rx="6.67"/><rect class="cls-5" x="82.75" y="85.83" width="34.51" height="28.21" rx="0.69"/><rect class="cls-6" x="86.07" y="90.14" width="27.88" height="19.91" rx="0.43"/><path class="cls-15" d="M86.69,90.51l22.6-.7,4.2.7a.37.37,0,0,1,.37.37v18.51a.36.36,0,0,1-.37.36l-4.2,0-22.6,0a.36.36,0,0,1-.37-.36V90.88A.37.37,0,0,1,86.69,90.51Z"/><path class="cls-16" d="M86.54,90.48,109,90a.35.35,0,0,1,.31.37s0,19.33,0,19.4H86.54a.35.35,0,0,1-.31-.37V90.85A.34.34,0,0,1,86.54,90.48Z"/><rect class="cls-9" x="106.32" y="97.77" width="1.33" height="4.79" rx="0.66" transform="translate(215.43 198.75) rotate(179.15)"/><rect class="cls-6" x="86.07" y="90.2" width="27.88" height="19.91" rx="0.43"/><path class="cls-17" d="M86.69,90.57l22.6-.69,4.2.69a.37.37,0,0,1,.37.37v18.51a.37.37,0,0,1-.37.37l-4.2,0-22.6,0a.37.37,0,0,1-.37-.37V90.94A.37.37,0,0,1,86.69,90.57Z"/><path class="cls-18" d="M86.54,90.54,109,90a.35.35,0,0,1,.31.37s0,19.33,0,19.4H86.54a.35.35,0,0,1-.31-.37V90.91A.34.34,0,0,1,86.54,90.54Z"/><rect class="cls-9" x="106.31" y="97.84" width="1.33" height="4.79" rx="0.66" transform="translate(215.43 198.87) rotate(179.15)"/></g></svg>